<?xml version="1.0" encoding="UTF-8" standalone="no"?>
<svg
   xmlns:dc="http://purl.org/dc/elements/1.1/"
   xmlns:cc="http://creativecommons.org/ns#"
   xmlns:rdf="http://www.w3.org/1999/02/22-rdf-syntax-ns#"
   xmlns:svg="http://www.w3.org/2000/svg"
   xmlns="http://www.w3.org/2000/svg"
   xml:space="preserve"
   enable-background="new 0 0 62.17 62.312"
   viewBox="0 0 1331.2 1104.9384"
   height="849.95264"
   width="1024"
   y="0px"
   x="0px"
   id="Layer_1"
   version="1.1"><defs
   id="defs78" /><metadata
   id="metadata13"><rdf:RDF><cc:Work
       rdf:about=""><dc:format>image/svg+xml</dc:format><dc:type
         rdf:resource="http://purl.org/dc/dcmitype/StillImage" /><dc:title></dc:title></cc:Work></rdf:RDF></metadata>


<g
   transform="translate(-3.960597,1226.2758)"
   style="display:inline"
   id="layer3"><g
     transform="matrix(2.2772328,0,0,2.2772328,116.8122,-1226.2758)"
     id="g4675"
     style="display:inline;fill:#444444;fill-opacity:1;stroke:none;stroke-opacity:1"><g
       style="fill:#444444;fill-opacity:1;stroke:none;stroke-opacity:1"
       id="g4619">
	<path
   style="fill:#444444;fill-opacity:1;stroke:none;stroke-opacity:1"
   d="m 485.212,272.93 v -60.648 h -48.034 c -2.193,-14.125 -5.801,-27.75 -10.842,-40.72 L 467.864,147.571 437.532,95.036 396.07,118.992 C 387.188,108.034 377.238,98.025 366.224,89.169 L 390.203,47.681 337.67,17.354 313.682,58.905 C 300.711,53.869 287.088,50.227 272.933,48.064 V 0 h -60.65 v 48.068 c -14.097,2.159 -27.72,5.834 -40.695,10.837 l -23.984,-41.551 -52.54,30.327 23.928,41.493 c -10.956,8.853 -20.964,18.864 -29.79,29.818 l -41.52,-23.956 -30.327,52.507 41.579,24.019 c -5.031,12.97 -8.679,26.595 -10.837,40.72 H 0.001 v 60.648 h 48.097 c 2.158,14.128 5.806,27.751 10.837,40.726 l -41.579,23.988 30.327,52.533 41.521,-23.956 c 8.826,10.958 18.834,20.964 29.79,29.822 l -23.928,41.49 52.54,30.322 23.988,-41.547 c 12.97,5.036 26.593,8.648 40.69,10.838 v 48.065 h 60.65 v -48.065 c 14.155,-2.189 27.783,-5.802 40.749,-10.838 l 23.988,41.547 52.542,-30.322 -23.988,-41.49 c 11.014,-8.858 20.964,-18.864 29.854,-29.855 l 41.458,23.961 30.327,-52.505 -41.528,-23.988 c 5.041,-12.975 8.648,-26.598 10.847,-40.726 z M 242.72809,405.36899 c -89.79109,0 -162.641989,-72.84733 -162.641989,-162.642 0,-89.82326 72.850899,-162.638412 162.641989,-162.638412 89.79109,0 162.64438,72.815152 162.64438,162.638412 0,89.79467 -72.85329,162.642 -162.64438,162.642 z"
   id="path4617" />
</g><g
       style="fill:#444444;fill-opacity:1;stroke:none;stroke-opacity:1"
       id="g4621">
</g><g
       style="fill:#444444;fill-opacity:1;stroke:none;stroke-opacity:1"
       id="g4623">
</g><g
       style="fill:#444444;fill-opacity:1;stroke:none;stroke-opacity:1"
       id="g4625">
</g><g
       style="fill:#444444;fill-opacity:1;stroke:none;stroke-opacity:1"
       id="g4627">
</g><g
       style="fill:#444444;fill-opacity:1;stroke:none;stroke-opacity:1"
       id="g4629">
</g><g
       style="fill:#444444;fill-opacity:1;stroke:none;stroke-opacity:1"
       id="g4631">
</g><g
       style="fill:#444444;fill-opacity:1;stroke:none;stroke-opacity:1"
       id="g4633">
</g><g
       style="fill:#444444;fill-opacity:1;stroke:none;stroke-opacity:1"
       id="g4635">
</g><g
       style="fill:#444444;fill-opacity:1;stroke:none;stroke-opacity:1"
       id="g4637">
</g><g
       style="fill:#444444;fill-opacity:1;stroke:none;stroke-opacity:1"
       id="g4639">
</g><g
       style="fill:#444444;fill-opacity:1;stroke:none;stroke-opacity:1"
       id="g4641">
</g><g
       style="fill:#444444;fill-opacity:1;stroke:none;stroke-opacity:1"
       id="g4643">
</g><g
       style="fill:#444444;fill-opacity:1;stroke:none;stroke-opacity:1"
       id="g4645">
</g><g
       style="fill:#444444;fill-opacity:1;stroke:none;stroke-opacity:1"
       id="g4647">
</g><g
       style="fill:#444444;fill-opacity:1;stroke:none;stroke-opacity:1"
       id="g4649">
</g></g><circle
     r="342.43933"
     cy="-673.80658"
     cx="669.28375"
     id="path4699"
     style="fill:#ffffff;fill-opacity:1;stroke:#444444;stroke-width:18.63723564;stroke-linejoin:round;stroke-miterlimit:4;stroke-dasharray:none;stroke-opacity:1;paint-order:stroke fill markers" /></g><g
   id="layer5"><g
     transform="matrix(1.5550308,0,0,0.71986748,424.16189,230.95972)"
     id="g7165"><path
       style="fill:#e73900;fill-opacity:1;fill-rule:evenodd;stroke:none;stroke-width:1.00000039pt;stroke-linecap:butt;stroke-linejoin:miter;stroke-opacity:1"
       d="M 58.954538,347.23395 C -9.0375362,242.85087 73.060087,233.52847 52.118826,90.624027 103.47625,158.04097 117.81456,240.73539 139.37527,265.19403 c 14.88035,19.20859 22.21919,42.39489 20.21849,66.21726 -0.20173,18.85366 23.6251,41.69831 17.1098,59.3005 -34.64389,-27.74877 -94.232504,-9.66226 -117.749022,-43.47784 z"
       id="path2043" /><path
       style="fill:#e73900;fill-opacity:1;fill-rule:evenodd;stroke:none;stroke-width:1.00000021pt;stroke-linecap:butt;stroke-linejoin:miter;stroke-opacity:1"
       d="m 161.7809,377.71368 c 0.39304,-19.99024 -23.79616,-28.66237 -33.52622,-44.27447 -16.1147,-11.92496 -21.21929,-30.48684 -21.57498,-48.76583 -1.3098,-29.23369 24.74827,-203.542593 62.71113,-250.356153 -14.5484,71.885963 21.56903,167.642523 43.88285,199.320793 15.09957,24.61357 20.77625,52.95275 15.3373,80.83768 -2.67223,22.24724 -21.10113,35.61534 -31.07052,55.56907 -9.97252,12.01678 -23.54409,13.15533 -35.75956,7.66891 z"
       id="path2041" /><path
       style="fill:#e73900;fill-opacity:1;fill-rule:evenodd;stroke:none;stroke-width:1.00000021pt;stroke-linecap:butt;stroke-linejoin:miter;stroke-opacity:1"
       d="m 175.5607,387.49258 c 5.78662,-17.36703 -5.66486,-44.89494 -9.27092,-61.00222 -9.78333,-14.50379 -8.83797,-32.01615 -4.1256,-48.07773 6.93672,-25.87513 8.08193,-147.98087 120.02513,-205.321883 -86.81755,85.182623 -29.17042,154.410883 -19.77233,187.745483 5.49049,25.33327 2.68381,51.73715 -9.69747,74.51982 -17.09362,31.45379 -62.73308,48.78925 -77.15881,52.13653 z"
       id="path2063" /><path
       style="fill:#e78c00;fill-opacity:1;fill-rule:evenodd;stroke:none;stroke-width:1.00000003pt;stroke-linecap:butt;stroke-linejoin:miter;stroke-opacity:1"
       d="m 157.11595,377.31308 c 0.29729,-16.31975 -17.99897,-23.39955 -25.35861,-36.14505 -12.18886,-9.73537 -16.04987,-24.88902 -16.31891,-39.81173 -0.99071,-23.86597 23.32574,-150.04614 42.82692,-204.387226 -13.30745,123.179276 20.92102,136.860986 37.79878,162.722676 11.42103,20.09417 15.71477,43.22988 11.60085,65.99474 -2.02123,18.16233 -10.73397,34.71702 -18.27463,51.00696 -7.54302,9.81033 -23.03485,5.09867 -32.2744,0.61963 z"
       id="path1305" /><path
       style="fill:#e78c00;fill-opacity:1;fill-rule:evenodd;stroke:none;stroke-width:1.00000039pt;stroke-linecap:butt;stroke-linejoin:miter;stroke-opacity:1"
       d="m 86.962916,353.92652 c -69.840645,-71.70464 6.256738,-76.69827 -13.112495,-175.17471 23.002985,46.4166 42.077879,81.28576 50.453849,114.24383 12.39538,11.63807 55.22529,82.68294 52.65834,95.56353 -26.99224,-15.36667 -69.88969,-13.98593 -89.999694,-34.63265 z"
       id="path2061" /><path
       style="fill:#e7e100;fill-opacity:1;fill-rule:evenodd;stroke:none;stroke-width:1.00000039pt;stroke-linecap:butt;stroke-linejoin:miter;stroke-opacity:1"
       d="M 100.90993,349.60902 C 59.13153,309.94963 90.331519,286.66405 89.958257,237.12916 c 11.549273,43.35274 48.079753,54.03502 47.610733,80.07767 6.03491,7.79028 37.6343,63.34456 34.99194,70.48334 -14.05024,-11.25385 -55.82176,-23.05478 -71.651,-38.08115 z"
       id="path2051" /><path
       style="fill:#e78c00;fill-opacity:1;fill-rule:evenodd;stroke:none;stroke-width:1.00000021pt;stroke-linecap:butt;stroke-linejoin:miter;stroke-opacity:1"
       d="m 168.06466,344.26386 c -7.34039,-10.88214 -6.63109,-24.0216 -3.09542,-36.07254 5.2046,-19.41401 28.07134,-127.32404 60.73809,-150.79486 -23.59103,44.36027 7.42986,112.59653 14.48121,137.60735 4.11949,19.00746 5.27165,41.48988 -7.27598,55.91194 -18.9554,21.78707 -42.88182,34.47506 -56.28999,37.51705 -8.52364,5.98155 -5.85229,-32.08371 -8.55791,-44.16894 z"
       id="path2045" /><path
       style="fill:#e7e100;fill-opacity:1;fill-rule:evenodd;stroke:none;stroke-width:0.99999985pt;stroke-linecap:butt;stroke-linejoin:miter;stroke-opacity:1"
       d="m 156.26263,378.50754 c 0.58986,-9.98438 -10.43516,-14.77626 -14.6226,-22.76365 -7.21937,-6.26512 -9.20458,-15.63948 -8.99637,-24.78268 -0.0101,-14.63677 -0.50958,-105.87648 18.02599,-128.55794 -8.20394,35.6561 22.69143,88.8079 32.37859,105.06359 6.49038,12.58815 8.54105,26.86036 5.45339,40.69541 -1.69139,11.06943 -7.43952,20.98736 -12.46341,30.77248 -4.86341,5.81789 -14.23058,2.54602 -19.77559,-0.42721 z"
       id="path1310" /><path
       style="fill:#e7e100;fill-opacity:1;fill-rule:evenodd;stroke:none;stroke-width:0.99999985pt;stroke-linecap:butt;stroke-linejoin:miter;stroke-opacity:1"
       d="m 165.07971,379.78285 c 4.74577,-6.95045 -1.13754,-15.17906 -0.70358,-22.75532 -2.49934,-7.6452 0.12406,-15.26957 4.23044,-21.77806 6.32576,-10.56763 17.44222,-89.10138 40.63311,-97.45039 -21.34853,22.18304 15.72363,81.49477 15.68122,97.41785 -0.76263,11.89305 -15.23012,27.96655 -23.44465,36.61523 -6.01023,7.25688 -17.90489,14.23077 -25.76444,19.11887 -6.02721,-3.66386 -7.91678,-6.6232 -10.6321,-11.16818 z"
       id="path2047" /><path
       style="fill:#ffff9e;fill-opacity:1;fill-rule:evenodd;stroke:none;stroke-width:1.0000011pt;stroke-linecap:butt;stroke-linejoin:miter;stroke-opacity:1"
       d="m 157.0795,371.83477 c -14.75607,-23.24143 -9.28153,-49.17026 -3.00634,-77.45115 2.85864,19.18916 14.76662,42.47567 21.49823,50.11206 4.64589,5.99724 6.9372,13.23638 6.31255,20.67411 -0.063,5.88643 -3.05125,13.0189 -5.08543,18.5146 -10.8164,-8.66363 -12.37677,-1.29185 -19.71901,-11.84962 z"
       id="path2049" /><path
       style="fill:#ffff9e;fill-opacity:1;fill-rule:evenodd;stroke:none;stroke-width:1.0000011pt;stroke-linecap:butt;stroke-linejoin:miter;stroke-opacity:1"
       d="m 173.66742,360.30753 c 11.43123,-25.04462 0.11491,-44.76145 26.31412,-64.40898 -7.82358,18.2147 10.06971,46.97556 8.12273,56.94846 -3.27428,16.7716 -25.8851,29.25442 -31.60084,30.54705 1.36171,-13.79126 -7.68024,-11.174 -2.83601,-23.08653 z"
       id="path2065" /><path
       style="fill:#ffff9e;fill-opacity:1;fill-rule:evenodd;stroke:none;stroke-width:1.0000011pt;stroke-linecap:butt;stroke-linejoin:miter;stroke-opacity:1"
       d="M 92.049535,278.33689 C 153.50277,356.0529 152.14455,316.81741 176.51446,383.37417 60.355771,331.65699 112.48851,336.32499 92.049535,278.33689 Z"
       id="path2067" /></g></g><g
   id="layer4"><g
     style="fill:#444444;fill-opacity:1"
     transform="matrix(0.08743357,-0.60525377,-0.60525377,-0.08743357,770.04855,921.34489)"
     id="g7107"><g
       style="fill:#444444;fill-opacity:1"
       id="g7044">

	<g
   style="fill:#444444;fill-opacity:1"
   id="g7042">
		<path
   style="fill:#444444;fill-opacity:1"
   d="M 293.85831,145.85918 70.638311,369.09118 98.344752,396.55667 320.46431,172.46718 Z"
   id="path7030" />



		<path
   style="fill:#444444;fill-opacity:1"
   d="M 432.526,125.404 307.60576,1.1914845 228.865,81.39 398.201,250.722 432.532,217.86075 Z"
   id="path7038" />

	</g>
</g><g
       style="fill:#444444;fill-opacity:1"
       id="g7046">
</g><g
       style="fill:#444444;fill-opacity:1"
       id="g7048">
</g><g
       style="fill:#444444;fill-opacity:1"
       id="g7050">
</g><g
       style="fill:#444444;fill-opacity:1"
       id="g7052">
</g><g
       style="fill:#444444;fill-opacity:1"
       id="g7054">
</g><g
       style="fill:#444444;fill-opacity:1"
       id="g7056">
</g><g
       style="fill:#444444;fill-opacity:1"
       id="g7058">
</g><g
       style="fill:#444444;fill-opacity:1"
       id="g7060">
</g><g
       style="fill:#444444;fill-opacity:1"
       id="g7062">
</g><g
       style="fill:#444444;fill-opacity:1"
       id="g7064">
</g><g
       style="fill:#444444;fill-opacity:1"
       id="g7066">
</g><g
       style="fill:#444444;fill-opacity:1"
       id="g7068">
</g><g
       style="fill:#444444;fill-opacity:1"
       id="g7070">
</g><g
       style="fill:#444444;fill-opacity:1"
       id="g7072">
</g><g
       style="fill:#444444;fill-opacity:1"
       id="g7074">
</g></g></g><g
   transform="translate(-3.960597,1226.2758)"
   style="display:inline;"
   id="layer2"><path
     id="rect4593"
     d="m 3.960597,-719.26523 c 445.194573,-110.06582 888.911353,-108.81548 1331.200003,0 l -68.7699,93.78473 68.7699,134.30449 c -448.32383,-154.72883 -891.89821,-149.3707 -1331.200003,0 L 79.645614,-625.3743 Z"
     style="fill:#444444;fill-opacity:1;stroke:none;stroke-width:27.02166748;stroke-linejoin:round;stroke-miterlimit:4;stroke-dasharray:none;stroke-opacity:1;paint-order:stroke fill markers;" /><path
     id="path5250"
     d="m 75.066827,-603.27766 c 0,0 607.386363,-110.14525 922.391963,28.55617"
     style="display:inline;fill:none;fill-rule:evenodd;stroke:none;stroke-width:1.22850001;stroke-linecap:butt;stroke-linejoin:miter;stroke-miterlimit:4;stroke-dasharray:none;stroke-opacity:1" /></g><g
   style="display:inline"
   id="layer1"><g
     style="display:none"
     id="layer6"><path
       id="path6608"
       d="m 232.16385,665.20223 c 0,0 415.10396,-110.22334 864.74575,-0.12043"
       style="display:inline;fill:none;fill-rule:evenodd;stroke:#000000;stroke-width:1.64774179px;stroke-linecap:butt;stroke-linejoin:miter;stroke-opacity:1" /></g><g
     id="text4562"
     style="font-style:normal;font-variant:normal;font-weight:bold;font-stretch:normal;font-size:192.3999939px;line-height:125%;font-family:'Liberation Serif';-inkscape-font-specification:'Liberation Serif, Bold';font-variant-ligatures:normal;font-variant-caps:normal;font-variant-numeric:normal;font-feature-settings:normal;text-align:start;letter-spacing:0px;word-spacing:0px;writing-mode:lr-tb;text-anchor:start;display:inline;fill:#ffffff;fill-opacity:1;stroke:none;stroke-width:5.11752605px;stroke-linecap:butt;stroke-linejoin:miter;stroke-opacity:1;"
     transform="translate(-1.8508469,-34.020339)"
     aria-label="BIBLE.RS"><path
       id="path7224"
       style="font-style:normal;font-variant:normal;font-weight:bold;font-stretch:normal;font-size:192.3999939px;font-family:'Liberation Serif';-inkscape-font-specification:'Liberation Serif, Bold';font-variant-ligatures:normal;font-variant-caps:normal;font-variant-numeric:normal;font-feature-settings:normal;text-align:start;letter-spacing:0px;writing-mode:lr-tb;text-anchor:start;fill:#ffffff;stroke-width:5.11752605px"
       d="m 294.4963,554.82178 q -2.1199,-10.78524 -7.76333,-14.65462 -5.55125,-3.88751 -16.24431,-1.78573 l -12.81323,2.51851 8.46146,43.04877 13.55068,-2.66346 q 9.86343,-1.93871 13.55003,-8.02493 3.68661,-6.08622 1.2587,-18.43854 z m 20.52584,55.23036 q -2.40979,-12.26014 -9.76367,-17.03798 -7.2617,-4.79597 -21.18111,-2.06003 l -15.9474,3.13454 9.8566,50.14675 q 13.38285,-2.05602 21.03392,-3.55987 10.78523,-2.1199 14.66097,-9.67943 3.96791,-7.57766 1.34069,-20.94398 z m -80.0271,53.1652 -1.32267,-6.72925 15.4582,-5.62345 -20.69162,-105.27129 -16.41849,0.73782 -1.32267,-6.72925 60.01017,-11.79531 q 24.61246,-4.8377 37.62406,-0.50172 12.99349,4.24381 15.89249,18.99285 2.17425,11.06178 -3.16303,20.44048 -5.33728,9.3787 -16.46295,14.15056 17.5822,-1.63675 27.93548,4.27491 10.33517,5.81948 12.90803,18.90926 3.53316,17.9754 -7.91099,29.89483 -11.44414,11.91943 -36.24097,16.79338 l -42.14348,7.70906 z" /><path
       id="path7226"
       style="font-style:normal;font-variant:normal;font-weight:bold;font-stretch:normal;font-size:192.3999939px;font-family:'Liberation Serif';-inkscape-font-specification:'Liberation Serif, Bold';font-variant-ligatures:normal;font-variant-caps:normal;font-variant-numeric:normal;font-feature-settings:normal;text-align:start;letter-spacing:0px;writing-mode:lr-tb;text-anchor:start;fill:#ffffff;stroke-width:5.11752605px"
       d="m 408.65219,623.71405 16.34043,0.23772 0.93897,6.88825 -61.34266,8.36191 -0.93897,-6.88825 15.68062,-4.60267 -14.47789,-106.20936 -16.35313,-0.33081 -0.92628,-6.79517 61.34266,-8.3619 0.92628,6.79516 -15.66793,4.69575 z" /><path
       id="path7228"
       style="font-style:normal;font-variant:normal;font-weight:bold;font-stretch:normal;font-size:192.3999939px;font-family:'Liberation Serif';-inkscape-font-specification:'Liberation Serif, Bold';font-variant-ligatures:normal;font-variant-caps:normal;font-variant-numeric:normal;font-feature-settings:normal;text-align:start;letter-spacing:0px;writing-mode:lr-tb;text-anchor:start;fill:#ffffff;stroke-width:5.11752605px"
       d="m 506.26168,527.72733 q -0.94285,-10.95109 -6.13544,-15.40725 -5.099,-4.46422 -15.95649,-3.52943 l -13.01026,1.12013 3.76334,43.71076 13.75906,-1.18461 q 10.01509,-0.86226 14.33737,-6.5148 4.32227,-5.65253 3.24242,-18.1948 z m 14.44175,57.1239 q -1.07179,-12.44868 -7.86673,-17.99269 -6.70134,-5.55208 -20.8348,-4.33524 l -16.19263,1.39413 4.38385,50.91788 q 13.52661,-0.59883 21.29533,-1.26769 10.95109,-0.94285 15.62048,-8.03966 4.76299,-7.10487 3.5945,-20.67673 z m -85.30021,44.21255 -0.58827,-6.83273 15.97505,-3.9213 -9.20286,-106.89011 -16.40215,-1.03945 -0.58828,-6.83273 60.93298,-5.24611 q 24.99094,-2.15164 37.45824,3.56406 12.45923,5.6221 13.7486,20.59794 0.96703,11.23189 -5.35181,19.9794 -6.31883,8.74751 -17.89473,12.29006 17.65613,0.27143 27.3105,7.26653 9.64631,6.9015 10.79062,20.19257 1.57142,18.25181 -11.09293,28.86574 -12.66435,10.61394 -37.84249,12.78169 l -42.72952,3.1131 z" /><path
       id="path7230"
       style="font-style:normal;font-variant:normal;font-weight:bold;font-stretch:normal;font-size:192.3999939px;font-family:'Liberation Serif';-inkscape-font-specification:'Liberation Serif, Bold';font-variant-ligatures:normal;font-variant-caps:normal;font-variant-numeric:normal;font-feature-settings:normal;text-align:start;letter-spacing:0px;writing-mode:lr-tb;text-anchor:start;fill:#ffffff;stroke-width:5.11752605px"
       d="m 625.93105,497.57265 -19.38293,2.90543 2.54392,106.69155 25.63978,-0.61135 q 20.00467,-0.47698 29.35174,-2.57929 l 7.07655,-26.38692 8.45267,-0.20155 -2.66196,38.12214 -113.35977,2.70291 -0.16348,-6.85606 16.09354,-2.92097 -2.55735,-107.25506 -16.11831,-2.05896 -0.16347,-6.85606 65.0856,-1.55187 z" /><path
       id="path7232"
       style="font-style:normal;font-variant:normal;font-weight:bold;font-stretch:normal;font-size:192.3999939px;font-family:'Liberation Serif';-inkscape-font-specification:'Liberation Serif, Bold';font-variant-ligatures:normal;font-variant-caps:normal;font-variant-numeric:normal;font-feature-settings:normal;text-align:start;letter-spacing:0px;writing-mode:lr-tb;text-anchor:start;fill:#ffffff;stroke-width:5.11752605px"
       d="m 692.39532,608.45445 16.24833,-1.87774 4.36016,-107.1969 -16.04597,-3.09726 0.27871,-6.85234 107.19691,4.36016 -1.30194,32.00889 -8.54196,-0.34744 -2.17526,-20.49147 q -10.45973,-1.74176 -30.35968,-2.55118 l -19.52448,-0.79415 -1.87846,46.18291 32.94756,1.34012 3.47497,-13.77406 8.35422,0.3398 -1.57302,38.67349 -8.35422,-0.3398 -2.32957,-14.38625 -32.94756,-1.34012 -1.97391,48.5296 23.74853,0.96596 q 24.21787,0.98504 31.78837,-0.2114 l 6.29732,-23.06156 8.54196,0.34744 -3.21142,35.03397 -113.2983,-4.60833 z" /><path
       id="path7234"
       style="font-style:normal;font-variant:normal;font-weight:bold;font-stretch:normal;font-size:192.3999939px;font-family:'Liberation Serif';-inkscape-font-specification:'Liberation Serif, Bold';font-variant-ligatures:normal;font-variant-caps:normal;font-variant-numeric:normal;font-feature-settings:normal;text-align:start;letter-spacing:0px;writing-mode:lr-tb;text-anchor:start;fill:#ffffff;stroke-width:5.11752605px"
       d="m 840.92041,626.11435 q -6.45758,-0.56475 -10.65052,-5.45803 -4.09936,-4.8851 -3.52643,-11.43626 0.56475,-6.45758 5.44985,-10.55694 4.89329,-4.19295 11.44445,-3.62001 6.45758,0.56475 10.55694,5.44985 4.19294,4.89328 3.62001,11.44445 -0.56475,6.45758 -5.45804,10.65052 -4.88509,4.09936 -11.43626,3.52642 z" /><path
       id="path7236"
       style="font-style:normal;font-variant:normal;font-weight:bold;font-stretch:normal;font-size:192.3999939px;font-family:'Liberation Serif';-inkscape-font-specification:'Liberation Serif, Bold';font-variant-ligatures:normal;font-variant-caps:normal;font-variant-numeric:normal;font-feature-settings:normal;text-align:start;letter-spacing:0px;writing-mode:lr-tb;text-anchor:start;fill:#ffffff;stroke-width:5.11752605px"
       d="m 921.36568,578.27728 -6.12528,43.53764 15.64763,4.76295 -0.95544,6.79113 -60.18985,-8.46806 0.95544,-6.79113 15.14501,-0.43076 14.94672,-106.23928 -15.66072,-4.66992 0.95544,-6.79113 59.63168,8.38953 q 27.53662,3.87411 39.92785,14.25063 12.39123,10.37653 9.86521,28.33116 -3.7694,26.79239 -29.9605,30.88696 l 26.81269,50.82803 13.13584,4.40957 -0.9554,6.79113 -40.37468,-5.68027 -27.35881,-57.73554 z m 45.09242,-31.2247 q 1.96323,-13.95437 -3.04546,-20.16153 -4.9956,-6.30019 -20.34541,-8.45974 l -13.02408,-1.83235 -7.23777,51.44512 13.48922,1.89778 q 14.32649,2.01559 21.21103,-3.08755 6.88454,-5.10313 8.95247,-19.80173 z" /><path
       id="path7238"
       style="font-style:normal;font-variant:normal;font-weight:bold;font-stretch:normal;font-size:192.3999939px;font-family:'Liberation Serif';-inkscape-font-specification:'Liberation Serif, Bold';font-variant-ligatures:normal;font-variant-caps:normal;font-variant-numeric:normal;font-feature-settings:normal;text-align:start;letter-spacing:0px;writing-mode:lr-tb;text-anchor:start;fill:#ffffff;stroke-width:5.11752605px"
       d="m 1021.1026,608.58109 8.0801,1.74886 -0.1409,20.63543 q 2.8826,5.33383 10.0314,10.0531 7.1488,4.71927 15.5044,6.52775 26.3521,5.70367 31.0422,-15.96567 1.4706,-6.79462 -2.5659,-12.57044 -3.9447,-5.75594 -13.8926,-11.7539 -14.6601,-8.65192 -20.9428,-13.37597 -6.171,-4.79599 -9.9917,-10.23673 -3.8207,-5.44074 -5.3157,-12.30053 -1.4751,-6.9516 0.5122,-16.13352 3.5176,-16.252 16.3643,-22.31456 12.9583,-6.13451 34.2604,-1.52388 15.4256,3.33873 33.3022,11.34113 l -6.3396,29.29033 -8.1719,-1.76873 -0.4752,-17.78904 q -7.8949,-8.82171 -20.3823,-11.52449 -11.2938,-2.44443 -18.268,0.46761 -6.9544,2.82022 -8.8225,11.45123 -1.3315,6.15189 2.7646,11.65225 4.116,5.40854 14.1235,11.13103 19.5361,11.43745 26.2279,18.26857 6.8034,6.75917 9.3056,15.18265 2.5023,8.42348 0.2963,18.61541 -8.4859,39.20681 -54.671,29.21049 -10.5592,-2.28544 -21.18,-6.50663 -10.5489,-4.1095 -17.8094,-8.75683 z" /></g></g>
</svg>